<?xml version="1.0" standalone="no"?>
<!DOCTYPE svg PUBLIC "-//W3C//DTD SVG 20010904//EN"
 "http://www.w3.org/TR/2001/REC-SVG-20010904/DTD/svg10.dtd">
<svg version="1.0" xmlns="http://www.w3.org/2000/svg"
 width="280.000000pt" height="280.000000pt" viewBox="0 0 280.000000 280.000000"
 preserveAspectRatio="xMidYMid meet">
<metadata>
Created by potrace 1.11, written by Peter Selinger 2001-2013
</metadata>
<g transform="translate(0.000000,280.000000) scale(0.100000,-0.100000)"
fill="#000000" stroke="none">
<path d="M0 1400 l0 -1400 1400 0 1400 0 0 80 c0 47 -4 80 -10 80 -5 0 -10 9
-10 20 0 11 5 20 10 20 6 0 10 105 10 295 l0 295 -187 0 c-178 0 -188 1 -210
22 -38 36 -48 10 -17 -45 l26 -47 111 0 c60 0 108 -3 104 -6 -3 -4 -49 -6
-101 -5 -97 1 -114 -7 -84 -37 6 -6 9 -14 6 -17 -3 -3 -109 -4 -235 -3 l-231
3 56 97 c31 54 58 95 61 93 2 -3 -1 -11 -7 -17 -7 -7 -12 -15 -12 -19 0 -11
96 -39 136 -39 l38 0 -30 -33 -29 -32 35 33 c44 39 50 40 50 5 0 -20 3 -24 9
-14 5 7 6 21 4 31 -3 12 3 23 18 30 19 11 25 9 40 -11 27 -35 23 -8 -6 42 -25
46 -21 59 20 59 32 0 52 -17 38 -31 -10 -10 -9 -17 4 -31 14 -16 35 -18 205
-18 l188 0 0 389 c0 363 -1 390 -17 394 -17 4 -17 5 0 6 15 1 17 16 17 167 l0
165 -82 -1 c-146 -2 -241 0 -236 5 3 3 76 6 162 6 l156 -1 0 435 0 435 -1273
0 c-977 0 -1276 -3 -1285 -12 -9 -9 -12 -9 -12 0 0 9 -32 12 -115 12 l-115 0
0 -1400z m1806 1359 c10 -17 -13 -36 -27 -22 -12 12 -4 33 11 33 5 0 12 -5 16
-11z m152 -12 c2 -10 -3 -17 -12 -17 -18 0 -29 16 -21 31 9 14 29 6 33 -14z
m143 0 c-13 -13 -26 -3 -16 12 3 6 11 8 17 5 6 -4 6 -10 -1 -17z m-1316 3 c3
-5 -1 -10 -9 -10 -9 0 -16 5 -16 10 0 6 4 10 9 10 6 0 13 -4 16 -10z m225 0
c0 -5 -7 -10 -16 -10 -8 0 -12 5 -9 10 3 6 10 10 16 10 5 0 9 -4 9 -10z m431
-163 l35 -63 -77 1 -78 0 18 30 c10 17 27 45 37 63 10 17 21 32 24 32 3 0 21
-28 41 -63z m375 52 c10 -17 -13 -36 -27 -22 -12 12 -4 33 11 33 5 0 12 -5 16
-11z m-1036 -9 c0 -5 -7 -10 -15 -10 -8 0 -15 5 -15 10 0 6 7 10 15 10 8 0 15
-4 15 -10z m225 0 c3 -5 -1 -10 -9 -10 -9 0 -16 5 -16 10 0 6 4 10 9 10 6 0
13 -4 16 -10z m955 0 c0 -5 -4 -10 -10 -10 -5 0 -10 5 -10 10 0 6 5 10 10 10
6 0 10 -4 10 -10z m-612 -19 c-7 -9 -13 -18 -15 -20 -1 -2 -1 5 0 16 0 11 7
20 14 20 10 0 10 -4 1 -16z m1259 -67 c-9 -9 -28 6 -21 18 4 6 10 6 17 -1 6
-6 8 -13 4 -17z m-2117 -24 c0 -5 -7 -10 -15 -10 -8 0 -15 5 -15 10 0 6 7 10
15 10 8 0 15 -4 15 -10z m350 -4 c0 -2 -9 -6 -20 -9 -11 -3 -18 -1 -14 4 5 9
34 13 34 5z m638 -17 c43 -16 21 -27 -25 -13 -39 12 -58 12 -96 3 -64 -15 -72
-4 -11 14 47 14 84 13 132 -4z m-353 -9 c10 -11 16 -20 13 -20 -3 0 -13 9 -23
20 -10 11 -16 20 -13 20 3 0 13 -9 23 -20z m147 -12 c-8 -8 -9 -4 -5 13 4 13
8 18 11 10 2 -7 -1 -18 -6 -23z m775 16 c-3 -3 -12 -4 -19 -1 -8 3 -5 6 6 6
11 1 17 -2 13 -5z m86 -1 c-13 -2 -33 -2 -45 0 -13 2 -3 4 22 4 25 0 35 -2 23
-4z m-743 -23 c0 -13 27 -13 32 1 4 12 58 2 58 -12 0 -18 -78 -30 -125 -18
-49 12 -58 25 -22 32 41 8 57 7 57 -3z m188 -67 c69 -114 88 -103 -177 -103
-127 0 -231 3 -231 7 0 10 70 133 77 133 3 0 3 -10 0 -22 -6 -22 -6 -22 8 -4
18 24 19 36 3 36 -6 0 -9 2 -7 5 3 2 29 -4 57 -15 29 -11 69 -20 89 -20 l37 0
-35 -37 -34 -38 40 38 c45 40 55 45 55 22 0 -8 4 -15 9 -15 5 0 7 9 4 19 -7
27 32 48 54 29 14 -11 16 -10 11 10 -4 12 -5 22 -3 22 1 0 21 -30 43 -67z
m820 25 c-5 -15 -248 -25 -248 -11 0 4 45 7 100 5 57 -2 107 1 117 7 24 14 36
14 31 -1z m-1923 -38 c0 -22 -29 -18 -33 3 -3 14 1 18 15 15 10 -2 18 -10 18
-18z m343 -7 c-16 -2 -40 -2 -55 0 -16 2 -3 4 27 4 30 0 43 -2 28 -4z m290
-19 c2 -16 -2 -20 -20 -19 -21 2 -30 18 -20 38 8 16 37 2 40 -19z m622 6 c0
-5 -7 -10 -15 -10 -8 0 -15 5 -15 10 0 6 7 10 15 10 8 0 15 -4 15 -10z m928
-73 c3 -12 -3 -17 -22 -17 -29 0 -44 19 -25 31 20 13 43 6 47 -14z m-242 -10
c1 -10 -2 -14 -9 -10 -6 3 -63 6 -126 6 l-116 1 105 3 c58 2 109 8 114 13 14
14 29 7 32 -13z m-1603 -22 c30 -6 32 -22 4 -39 -20 -13 -52 3 -52 25 0 8 -4
20 -9 27 -6 11 -4 11 10 3 11 -5 32 -12 47 -16z m-513 -6 c0 -5 -7 -9 -15 -9
-15 0 -20 12 -9 23 8 8 24 -1 24 -14z m168 8 c8 -10 5 -13 -14 -15 -23 -2 -31
8 -17 21 10 10 19 8 31 -6z m1552 -18 c0 -5 -7 -9 -15 -9 -15 0 -20 12 -9 23
8 8 24 -1 24 -14z m-763 -15 c-3 -3 -12 -4 -19 -1 -8 3 -5 6 6 6 11 1 17 -2
13 -5z m306 -1 c-7 -2 -21 -2 -30 0 -10 3 -4 5 12 5 17 0 24 -2 18 -5z m-423
-17 c0 -2 -8 -10 -17 -17 -16 -13 -17 -12 -4 4 13 16 21 21 21 13z m541 -13
c13 -16 12 -17 -3 -4 -10 7 -18 15 -18 17 0 8 8 3 21 -13z m637 -10 c-21 -2
-55 -2 -75 0 -21 2 -4 4 37 4 41 0 58 -2 38 -4z m-1218 -7 c0 -2 -8 -10 -17
-17 -16 -13 -17 -12 -4 4 13 16 21 21 21 13z m186 -11 c-11 -8 -26 -15 -33
-15 -20 0 -54 -22 -80 -52 -15 -16 -30 -25 -39 -21 -9 3 -27 -6 -45 -23 -26
-25 -29 -26 -29 -8 0 12 27 41 71 77 66 53 75 57 123 57 47 -1 49 -2 32 -15z
m435 -76 c80 -68 109 -98 109 -115 0 -12 3 -31 6 -41 5 -16 4 -16 -10 1 -9 11
-16 28 -16 37 0 10 -4 21 -10 24 -6 4 -7 -1 -4 -12 5 -16 4 -16 -10 1 -9 11
-16 26 -16 34 0 7 -5 10 -10 7 -6 -3 -13 1 -16 10 -4 8 -36 40 -72 70 -66 55
-67 55 -134 55 -37 0 -70 5 -73 10 -4 6 22 10 70 10 l76 0 110 -91z m4 71 c10
-11 16 -20 13 -20 -3 0 -13 9 -23 20 -10 11 -16 20 -13 20 3 0 13 -9 23 -20z
m945 -4 c0 -8 -5 -18 -11 -22 -14 -8 -33 11 -25 25 10 16 36 13 36 -3z m-2005
-6 c-3 -5 -12 -10 -18 -10 -7 0 -6 4 3 10 19 12 23 12 15 0z m715 -14 c6 -8
27 -20 46 -26 58 -19 38 -30 -55 -30 -108 0 -126 -11 -176 -111 -42 -82 -47
-142 -14 -160 28 -14 92 -6 149 20 54 25 108 26 189 5 71 -18 96 -13 116 24 8
16 14 21 15 12 1 -54 -76 -83 -192 -74 -60 5 -82 2 -126 -15 -63 -25 -148 -28
-180 -5 -32 22 -29 76 11 159 19 39 37 87 41 107 7 39 33 64 96 91 45 20 65
20 80 3z m274 -28 c28 -23 55 -45 60 -50 5 -4 7 -10 4 -14 -4 -3 -15 2 -25 11
-48 42 -85 67 -120 80 l-38 14 34 0 c25 1 46 -9 85 -41z m-614 19 c0 -2 -10
-12 -22 -23 l-23 -19 19 23 c18 21 26 27 26 19z m745 -17 c10 -11 16 -20 13
-20 -3 0 -13 9 -23 20 -10 11 -16 20 -13 20 3 0 13 -9 23 -20z m-1317 -27
c-10 -2 -26 -2 -35 0 -10 3 -2 5 17 5 19 0 27 -2 18 -5z m522 4 c0 -2 -10 -12
-22 -23 l-23 -19 19 23 c18 21 26 27 26 19z m845 -17 c10 -11 16 -20 13 -20
-3 0 -13 9 -23 20 -10 11 -16 20 -13 20 3 0 13 -9 23 -20z m-1283 -10 c23 0
36 -29 18 -40 -18 -11 -40 -1 -40 19 0 9 -4 22 -10 29 -7 9 -7 9 2 2 7 -5 20
-10 30 -10z m1734 -7 c15 -16 15 -17 -2 -24 -30 -12 -49 -10 -70 6 -16 13 -17
16 -4 25 23 15 57 12 76 -7z m-713 -21 c28 -28 36 -122 13 -141 -14 -12 -26
-12 -76 2 -83 24 -102 22 -183 -18 -39 -19 -81 -35 -93 -35 -26 0 -54 24 -54
48 0 27 38 97 71 128 29 27 35 29 114 29 46 0 87 4 92 8 14 15 94 0 116 -21z
m312 -2 c10 -11 16 -20 13 -20 -3 0 -13 9 -23 20 -10 11 -16 20 -13 20 3 0 13
-9 23 -20z m-955 6 c0 -2 -8 -10 -17 -17 -16 -13 -17 -12 -4 4 13 16 21 21 21
13z m84 -41 c-13 -9 -20 -10 -23 -3 -2 6 5 17 15 25 13 9 20 10 22 3 2 -6 -4
-17 -14 -25z m80 20 c-5 -13 5 -19 27 -17 4 1 3 -14 -1 -32 -8 -36 -66 -116
-84 -116 -6 0 -4 5 4 11 12 8 10 9 -10 7 -17 -2 -24 1 -22 11 1 7 -3 20 -10
29 -10 12 -10 14 0 8 8 -5 12 -1 12 13 0 11 5 23 11 26 7 5 8 -5 4 -29 -7 -34
-6 -36 18 -36 16 0 34 10 47 27 27 34 23 68 -7 67 -21 0 -21 6 0 34 13 16 18
15 11 -3z m-207 -132 c-2 -21 -4 -6 -4 32 0 39 2 55 4 38 2 -18 2 -50 0 -70z
m1030 0 c-2 -21 -4 -6 -4 32 0 39 2 55 4 38 2 -18 2 -50 0 -70z m-1463 57 c20
0 33 -27 19 -41 -13 -13 -43 0 -43 19 0 8 -8 25 -17 36 -18 21 -18 21 3 4 11
-10 28 -18 38 -18z m1183 -12 c-3 -7 -5 -2 -5 12 0 14 2 19 5 13 2 -7 2 -19 0
-25z m-1496 -75 c-12 -20 -14 -14 -5 12 4 9 9 14 11 11 3 -2 0 -13 -6 -23z
m730 -46 c-10 -9 -11 -8 -5 6 3 10 9 15 12 12 3 -3 0 -11 -7 -18z m104 -41
c43 -74 43 -124 -3 -256 -61 -177 -54 -168 -101 -118 -27 29 -33 31 -51 20
-17 -10 -20 -10 -20 2 0 27 31 35 67 18 43 -21 54 -10 82 82 28 91 28 189 1
234 -14 22 -26 32 -36 28 -12 -4 -12 -2 -4 14 17 31 37 24 65 -24z m1473 27
c5 -17 -26 -29 -40 -15 -6 6 -7 15 -3 22 9 14 37 9 43 -7z m-2060 -5 c-6 -18
-28 -21 -28 -4 0 9 7 16 16 16 9 0 14 -5 12 -12z m462 9 c0 -2 -10 -12 -22
-23 l-23 -19 19 23 c18 21 26 27 26 19z m1125 -17 c10 -11 16 -20 13 -20 -3 0
-13 9 -23 20 -10 11 -16 20 -13 20 3 0 13 -9 23 -20z m-1168 -52 c-3 -8 -6 -5
-6 6 -1 11 2 17 5 13 3 -3 4 -12 1 -19z m130 -18 c26 -71 -8 -226 -51 -234
-61 -13 -76 -13 -76 0 0 8 12 17 28 20 54 13 82 57 83 132 2 67 -8 95 -32 89
-16 -4 -17 -2 -8 15 15 28 42 18 56 -22z m1060 18 c-3 -8 -6 -5 -6 6 -1 11 2
17 5 13 3 -3 4 -12 1 -19z m743 6 c0 -2 -9 -4 -20 -4 -11 0 -20 4 -20 9 0 5 9
7 20 4 11 -3 20 -7 20 -9z m-1943 -46 c-3 -8 -6 -5 -6 6 -1 11 2 17 5 13 3 -3
4 -12 1 -19z m1210 0 c-3 -8 -6 -5 -6 6 -1 11 2 17 5 13 3 -3 4 -12 1 -19z
m-1254 -41 c-15 -19 -30 -32 -32 -30 -5 3 49 63 57 63 2 0 -9 -15 -25 -33z
m-415 -4 c5 -17 -26 -29 -40 -15 -6 6 -7 15 -3 22 9 14 37 9 43 -7z m2162 -3
c0 -5 -4 -10 -9 -10 -6 0 -13 5 -16 10 -3 6 1 10 9 10 9 0 16 -4 16 -10z
m-422 -31 c-3 -8 -7 -3 -11 10 -4 17 -3 21 5 13 5 -5 8 -16 6 -23z m-801 -11
c-3 -7 -5 -2 -5 12 0 14 2 19 5 13 2 -7 2 -19 0 -25z m713 12 c6 -11 8 -20 6
-20 -3 0 -10 9 -16 20 -6 11 -8 20 -6 20 3 0 10 -9 16 -20z m-1273 -97 c-2
-16 -4 -5 -4 22 0 28 2 40 4 28 2 -13 2 -35 0 -50z m423 37 c0 -26 -4 -30 -28
-30 -59 0 -99 -56 -127 -178 -11 -46 -25 -80 -44 -101 -27 -30 -29 -31 -119
-31 l-92 0 0 69 c0 62 2 70 25 85 24 16 24 15 31 -20 5 -27 2 -38 -10 -47 -16
-11 -15 -15 8 -36 l26 -24 11 33 c12 32 12 32 24 10 11 -21 49 -49 68 -50 5 0
5 5 1 12 -4 6 -3 8 3 5 19 -12 42 28 58 98 29 128 84 215 137 215 11 0 16 5
13 10 -3 6 -1 10 4 10 6 0 11 -13 11 -30z m947 -42 c-2 -13 -4 -3 -4 22 0 25
2 35 4 23 2 -13 2 -33 0 -45z m673 52 c0 -5 -5 -10 -11 -10 -5 0 -7 5 -4 10 3
6 8 10 11 10 2 0 4 -4 4 -10z m-1410 -50 c0 -28 0 -28 -37 -15 -24 8 -39 20
-41 32 -2 16 3 18 38 15 36 -4 40 -7 40 -32z m1370 16 c0 -2 -8 -10 -17 -17
-16 -13 -17 -12 -4 4 13 16 21 21 21 13z m-2410 -36 c0 -13 -29 -32 -40 -25
-14 9 -13 32 3 38 15 5 37 -2 37 -13z m2229 6 c18 -21 -11 -41 -39 -26 -17 9
-19 14 -9 26 15 18 33 18 48 0z m-1394 -22 c0 -15 -6 -18 -30 -16 -20 2 -41
-5 -58 -18 -35 -28 -35 -11 1 22 42 40 87 46 87 12z m-474 -83 c-23 -21 -41
-35 -41 -30 0 4 16 21 35 38 19 17 35 36 36 43 0 10 2 10 6 0 3 -7 -13 -30
-36 -51z m1465 6 c19 -16 34 -32 34 -36 0 -5 -18 9 -40 29 -22 20 -40 43 -39
51 0 12 1 12 6 0 3 -8 21 -27 39 -44z m-816 -21 c0 -12 -7 -43 -14 -71 l-14
-50 5 68 c4 44 2 67 -5 67 -6 0 -13 -10 -15 -22 -2 -13 -5 -2 -6 24 l-1 48 25
-22 c14 -12 25 -31 25 -42z m27 17 c-3 -10 -5 -4 -5 12 0 17 2 24 5 18 2 -7 2
-21 0 -30z m396 10 c-13 -2 -35 -2 -50 0 -16 2 -5 4 22 4 28 0 40 -2 28 -4z
m346 -94 c1 -20 4 -51 7 -68 5 -24 3 -31 -10 -31 -9 0 -16 -5 -16 -12 0 -6 -3
-9 -6 -6 -3 3 0 15 7 25 8 13 9 38 5 76 -6 47 -12 60 -37 77 -16 12 -29 26
-29 32 0 6 18 -5 39 -23 32 -27 39 -41 40 -70z m680 89 c-2 -2 -22 -19 -44
-38 l-40 -35 39 42 c22 24 42 40 45 38 2 -3 2 -6 0 -7z m-1219 -43 c0 -2 -13
-31 -30 -63 -16 -33 -30 -65 -30 -71 0 -6 -10 -11 -22 -11 -21 1 -22 2 -6 14
10 7 27 35 39 62 20 45 24 53 28 69 1 6 21 7 21 0z m246 -20 c20 -13 24 -24
24 -70 0 -51 -11 -77 -25 -55 -3 5 -1 10 4 10 6 0 11 20 11 44 0 35 -5 48 -22
60 -27 19 -104 21 -111 4 -3 -7 -6 -2 -6 11 -1 23 1 24 50 18 28 -4 62 -13 75
-22z m-1482 2 c15 -11 15 -15 4 -23 -25 -21 -46 -22 -68 -7 -22 15 -22 17 -5
30 24 17 46 17 69 0z m1710 -3 c9 -22 8 -24 -9 -24 -8 0 -15 9 -15 20 0 24 15
27 24 4z m-1397 -31 c-3 -10 -5 -4 -5 12 0 17 2 24 5 18 2 -7 2 -21 0 -30z
m650 15 c-3 -8 -6 -5 -6 6 -1 11 2 17 5 13 3 -3 4 -12 1 -19z m900 -15 c-3
-10 -5 -4 -5 12 0 17 2 24 5 18 2 -7 2 -21 0 -30z m353 22 c10 -12 10 -15 -4
-15 -9 0 -16 7 -16 15 0 8 2 15 4 15 2 0 9 -7 16 -15z m-2493 -27 c-3 -8 -6
-5 -6 6 -1 11 2 17 5 13 3 -3 4 -12 1 -19z m1748 12 c3 -6 -1 -7 -9 -4 -18 7
-21 14 -7 14 6 0 13 -4 16 -10z m-376 -22 c-2 -2 -17 -14 -32 -28 l-29 -25 13
28 c7 16 20 27 32 27 11 0 18 -1 16 -2z m158 -38 c-12 -22 -30 -40 -39 -40
-14 0 -14 5 5 40 12 22 30 40 39 40 14 0 14 -5 -5 -40z m462 16 c16 -19 -2
-56 -26 -56 -14 0 -14 2 2 20 22 24 13 39 -11 19 -16 -13 -16 -12 -5 9 14 26
24 28 40 8z m-1406 -85 c3 -41 2 -59 -4 -50 -8 13 -14 128 -5 118 2 -2 6 -33
9 -68z m357 39 c0 -5 -5 -10 -11 -10 -5 0 -7 5 -4 10 3 6 8 10 11 10 2 0 4 -4
4 -10z m310 0 c0 -5 -8 -10 -17 -10 -15 0 -16 2 -3 10 19 12 20 12 20 0z m80
-6 c0 -2 -9 -4 -21 -4 -11 0 -18 4 -14 10 5 8 35 3 35 -6z m820 -28 c0 -37 -6
-50 -41 -87 -23 -24 -35 -35 -28 -24 8 11 20 26 27 33 7 8 10 18 6 23 -3 5 0
8 8 7 9 -2 14 11 16 45 4 59 12 62 12 3z m-1077 27 c-24 -2 -43 -9 -43 -14 0
-6 -5 -7 -11 -3 -19 11 12 24 56 22 l40 -1 -42 -4z m-446 -65 c-2 -13 -4 -5
-4 17 -1 22 1 32 4 23 2 -10 2 -28 0 -40z m330 15 c-3 -10 -5 -4 -5 12 0 17 2
24 5 18 2 -7 2 -21 0 -30z m770 -10 c-3 -10 -5 -2 -5 17 0 19 2 27 5 18 2 -10
2 -26 0 -35z m110 -35 c-2 -18 -4 -6 -4 27 0 33 2 48 4 33 2 -15 2 -42 0 -60z
m-1561 51 c10 -17 -13 -36 -27 -22 -12 12 -4 33 11 33 5 0 12 -5 16 -11z m431
-51 c-2 -13 -4 -3 -4 22 0 25 2 35 4 23 2 -13 2 -33 0 -45z m64 -18 c5 0 9 -6
9 -14 0 -7 7 -19 15 -26 8 -7 15 -19 15 -28 0 -11 -8 -8 -30 13 -27 26 -30 34
-28 84 1 50 2 52 5 14 2 -24 8 -43 14 -43z m49 50 c0 -16 -4 -30 -9 -30 -4 0
-8 13 -7 30 1 39 16 39 16 0z m208 -51 c-7 -5 -17 -9 -23 -9 -5 1 -2 5 8 11 9
5 17 19 17 31 0 15 -5 19 -20 15 -11 -3 -20 -1 -20 4 0 5 9 9 20 9 11 0 21 6
22 13 1 6 3 -6 5 -27 3 -25 0 -42 -9 -47z m69 46 c-6 -51 -17 -56 -17 -7 0 23
5 42 10 42 6 0 9 -15 7 -35z m243 25 c0 -5 -2 -10 -4 -10 -3 0 -8 5 -11 10 -3
6 -1 10 4 10 6 0 11 -4 11 -10z m77 -42 c-2 -13 -4 -5 -4 17 -1 22 1 32 4 23
2 -10 2 -28 0 -40z m86 -131 c15 -25 37 -53 49 -62 13 -8 18 -15 14 -15 -5 0
-19 8 -30 17 -12 10 -9 4 6 -12 26 -28 30 -29 70 -18 39 10 41 10 23 -3 -12
-9 -36 -14 -60 -12 -36 3 -43 8 -79 62 -47 72 -73 146 -51 146 11 0 15 13 16
43 1 29 4 21 8 -29 5 -50 15 -84 34 -117z m106 141 c-1 -39 -2 -41 -8 -13 -4
17 -5 36 -3 43 8 23 12 12 11 -30z m48 -5 c-3 -10 -5 -2 -5 17 0 19 2 27 5 18
2 -10 2 -26 0 -35z m415 12 c-2 -19 -6 -35 -8 -35 -2 0 -4 16 -4 35 0 19 4 35
8 35 4 0 6 -16 4 -35z m403 25 c3 -5 38 -10 77 -10 97 0 83 -7 -22 -11 -74 -3
-85 -1 -88 14 -4 18 22 24 33 7z m-1172 -72 c20 -3 19 -4 -5 -9 -28 -6 -28 -5
-26 40 1 43 2 43 5 9 3 -29 9 -38 26 -40z m33 25 c-10 -10 -19 5 -10 18 6 11
8 11 12 0 2 -7 1 -15 -2 -18z m-200 -18 c-3 -8 -13 -14 -23 -14 -17 1 -17 2 0
6 9 2 17 14 18 26 0 12 3 16 6 9 3 -7 2 -19 -1 -27z m394 25 c0 -5 -4 -10 -10
-10 -5 0 -10 5 -10 10 0 6 5 10 10 10 6 0 10 -4 10 -10z m460 0 c0 -5 -4 -10
-10 -10 -5 0 -10 5 -10 10 0 6 5 10 10 10 6 0 10 -4 10 -10z m-793 -22 c-3 -8
-6 -5 -6 6 -1 11 2 17 5 13 3 -3 4 -12 1 -19z m-1167 2 c0 -5 -2 -10 -4 -10
-3 0 -8 5 -11 10 -3 6 -1 10 4 10 6 0 11 -4 11 -10z m1770 -10 c0 -5 -5 -10
-11 -10 -5 0 -7 5 -4 10 3 6 8 10 11 10 2 0 4 -4 4 -10z m-1165 -11 c11 -17
-1 -21 -15 -4 -8 9 -8 15 -2 15 6 0 14 -5 17 -11z m215 -5 c0 -8 -5 -12 -11
-8 -6 3 -14 2 -18 -4 -4 -7 -11 -4 -19 8 -11 18 -9 20 18 20 20 0 30 -5 30
-16z m50 6 c-19 -13 -30 -13 -30 0 0 6 10 10 23 10 18 0 19 -2 7 -10z m170 0
c0 -5 -2 -10 -4 -10 -3 0 -8 5 -11 10 -3 6 -1 10 4 10 6 0 11 -4 11 -10z m180
6 c0 -11 -19 -15 -25 -6 -3 5 1 10 9 10 9 0 16 -2 16 -4z m150 -20 c0 -14 18
-62 40 -107 45 -92 47 -105 24 -137 -21 -31 -68 -28 -146 8 -75 36 -120 38
-149 9 -16 -16 -19 -27 -14 -47 12 -44 11 -55 -5 -59 -12 -4 -12 -2 -2 5 10 7
11 14 1 35 -16 36 -4 76 29 88 37 15 88 6 154 -25 60 -28 79 -31 109 -16 31
17 24 72 -18 148 -21 37 -38 69 -38 72 -1 3 -6 15 -13 28 -11 20 -10 22 8 22
15 0 20 -7 20 -24z m364 9 c-4 -8 -7 -15 -9 -15 -2 0 -5 7 -9 15 -3 9 0 15 9
15 9 0 12 -6 9 -15z m239 8 c-7 -2 -13 -15 -13 -27 0 -13 -24 -45 -66 -86 -50
-50 -62 -58 -51 -35 8 17 34 48 56 70 41 39 54 75 27 75 -8 0 -22 -7 -30 -16
-15 -14 -16 -14 -16 5 0 19 6 21 53 20 28 0 46 -3 40 -6z m-726 -80 c-3 -10
-5 -2 -5 17 0 19 2 27 5 18 2 -10 2 -26 0 -35z m1367 -11 c-6 -9 -20 -18 -30
-19 -15 -2 -14 -1 4 7 24 10 28 28 12 48 -5 7 -2 5 7 -3 14 -12 15 -19 7 -33z
m-2123 15 c-10 -9 -11 -8 -5 6 3 10 9 15 12 12 3 -3 0 -11 -7 -18z m360 6 c13
-16 12 -17 -3 -4 -10 7 -18 15 -18 17 0 8 8 3 21 -13z m1274 -22 c-21 -43 -29
-39 -8 4 9 19 18 33 21 31 2 -2 -4 -18 -13 -35z m271 -10 c7 -13 38 -45 70
-72 l59 -48 80 -2 c76 -2 77 -3 25 -8 -84 -9 -103 -3 -173 55 -36 30 -71 54
-79 54 -10 0 -9 3 2 10 13 8 12 10 -2 10 -10 0 -18 7 -18 16 0 22 23 12 36
-15z m158 13 c3 -8 2 -12 -4 -9 -6 3 -10 10 -10 16 0 14 7 11 14 -7z m-2264
-4 c0 -5 -7 -10 -16 -10 -8 0 -12 5 -9 10 3 6 10 10 16 10 5 0 9 -4 9 -10z
m414 -100 c31 -30 56 -58 56 -62 0 -3 -34 29 -75 72 -41 43 -75 85 -75 92 0 7
9 0 19 -17 10 -16 44 -55 75 -85z m1346 99 c0 -5 -34 -46 -76 -90 -42 -44 -74
-75 -72 -70 1 5 33 41 71 80 37 39 67 75 67 81 0 5 2 10 5 10 3 0 5 -5 5 -11z
m-1169 -16 c13 -16 12 -17 -3 -4 -10 7 -18 15 -18 17 0 8 8 3 21 -13z m1304
-54 c19 -33 35 -62 35 -64 0 -2 -27 -1 -60 2 -40 4 -65 2 -75 -7 -8 -7 -15 -9
-15 -5 0 10 70 135 75 135 2 0 20 -27 40 -61z m-1646 -13 c17 -29 31 -55 31
-57 0 -2 -33 -4 -74 -4 -71 0 -74 1 -64 20 34 64 61 104 68 100 5 -3 23 -30
39 -59z m-96 19 c-3 -9 -8 -14 -10 -11 -3 3 -2 9 2 15 9 16 15 13 8 -4z m467
-62 c0 -3 -13 5 -30 17 -16 12 -30 26 -30 31 0 5 14 -3 30 -18 17 -14 30 -28
30 -30z m121 26 c41 14 49 8 10 -9 -39 -16 -60 -10 -79 20 l-16 25 26 -24 c24
-21 30 -22 59 -12z m789 -46 c-1 -40 -146 -193 -184 -193 -14 0 -26 5 -26 10
0 6 10 10 23 10 27 0 154 129 169 172 13 35 18 36 18 1z m-1725 -3 c3 -5 1
-10 -4 -10 -6 0 -11 5 -11 10 0 6 2 10 4 10 3 0 8 -4 11 -10z m286 -4 c5 3 9
2 9 -1 0 -10 -30 -65 -36 -65 -3 0 -2 5 2 11 4 7 7 26 7 43 -1 17 1 25 4 18 3
-6 9 -10 14 -6z m1817 -1 c29 -9 52 -21 52 -26 0 -7 -7 -8 -17 -4 -57 24 -93
27 -137 12 -24 -8 -47 -12 -51 -9 -5 5 71 38 96 41 3 1 29 -6 57 -14z m-1620
-16 c12 -5 22 -13 22 -19 0 -13 -1 -13 -46 6 -39 17 -105 13 -134 -7 -11 -8
-7 -9 19 -5 19 4 40 1 47 -5 11 -9 18 -8 29 1 16 13 65 6 65 -10 0 -5 -12 -12
-27 -16 -16 -3 -34 -8 -42 -10 -19 -6 -94 16 -103 30 -14 20 -9 25 40 40 45
13 83 12 130 -5z m312 6 c11 -13 10 -14 -4 -9 -9 3 -16 10 -16 15 0 13 6 11
20 -6z m51 -2 c13 -16 12 -17 -3 -4 -10 7 -18 15 -18 17 0 8 8 3 21 -13z m295
2 c20 -8 51 -28 70 -44 18 -17 48 -32 66 -35 18 -3 44 -7 58 -10 14 -2 -9 -4
-50 -3 -73 0 -100 8 -100 30 0 5 10 2 23 -9 l22 -19 -19 22 c-10 13 -22 20
-26 18 -4 -2 -15 4 -25 15 -21 23 -75 27 -75 6 0 -8 14 -26 32 -41 36 -31 27
-45 -31 -45 -32 0 -33 1 -16 14 18 13 18 15 2 39 -22 33 -22 53 1 66 23 14 27
13 68 -4z m898 -31 c6 -15 8 -15 25 0 13 12 27 15 45 10 30 -7 34 -20 9 -27
-55 -15 -78 -17 -113 -7 -58 15 -51 31 16 39 7 0 15 -6 18 -15z m-1714 -39
c23 -8 59 -15 78 -15 l36 0 -30 -32 -29 -33 35 33 c43 38 47 39 53 10 4 -20 4
-19 6 4 2 38 36 56 62 32 18 -16 19 -16 13 -1 -3 9 -4 17 -1 17 7 0 87 -132
87 -143 0 -4 -106 -7 -234 -7 l-235 0 41 71 c28 49 43 67 49 58 6 -11 9 -10
15 4 7 20 2 20 54 2z m376 -37 l29 -33 -32 29 c-31 28 -38 36 -30 36 2 0 16
-15 33 -32z m1104 29 c0 -2 -12 -14 -27 -28 l-28 -24 24 28 c23 25 31 32 31
24z m-1753 -61 c-20 -17 -22 -17 -25 -1 -5 21 30 48 40 32 5 -7 -1 -20 -15
-31z m960 28 c-3 -3 -12 -4 -19 -1 -8 3 -5 6 6 6 11 1 17 -2 13 -5z m-906 -51
c13 -16 12 -17 -3 -4 -17 13 -22 21 -14 21 2 0 10 -8 17 -17z m1231 5 c-22 -9
-202 -9 -224 0 -10 4 41 7 112 7 71 0 122 -3 112 -7z m-492 -105 c0 -8 -9 0
-50 45 l-45 47 48 -45 c26 -24 47 -45 47 -47z m830 42 c-24 -25 -46 -45 -49
-45 -3 0 15 20 39 45 24 25 46 45 49 45 3 0 -15 -20 -39 -45z m-1140 -26 c0
-6 -7 -18 -16 -26 -13 -14 -17 -14 -25 -2 -13 20 -11 27 8 38 19 10 33 6 33
-10z m1434 6 c10 -7 15 -18 12 -24 -9 -14 -36 -2 -36 16 0 8 -5 11 -12 7 -7
-4 -8 -3 -4 4 9 15 17 15 40 -3z m-713 -22 c13 -16 12 -17 -3 -4 -15 11 -21
11 -35 0 -16 -13 -17 -12 -4 4 7 9 17 17 21 17 4 0 14 -8 21 -17z m1147 4 c14
-17 -9 -47 -35 -47 -23 0 -36 33 -20 49 15 15 42 14 55 -2z m172 3 c0 -5 -2
-10 -4 -10 -3 0 -8 5 -11 10 -3 6 -1 10 4 10 6 0 11 -4 11 -10z m-1689 -28
c-7 -2 -18 1 -23 6 -8 8 -4 9 13 5 13 -4 18 -8 10 -11z m724 8 c-3 -5 -14 -10
-23 -9 -14 0 -13 2 3 9 27 11 27 11 20 0z m-1555 -41 c0 -6 80 -9 199 -7 110
2 197 0 194 -4 -2 -5 -94 -8 -204 -8 -147 0 -199 3 -199 12 0 6 -6 3 -14 -8
-11 -14 -18 -16 -26 -8 -8 8 -7 15 5 27 16 16 45 13 45 -4z m2290 -2 c0 -2
-10 -12 -22 -23 l-23 -19 19 23 c18 21 26 27 26 19z m-1635 -20 c17 -13 17
-15 -6 -30 -29 -21 -38 -21 -64 -1 -20 15 -20 15 -1 30 25 18 47 18 71 1z
m1105 -2 c6 -8 9 -19 5 -25 -8 -13 -42 -13 -50 0 -7 11 12 40 25 40 4 0 13 -7
20 -15z m-942 -88 c4 -20 -25 -34 -40 -19 -15 15 -1 44 19 40 10 -2 19 -11 21
-21z m767 13 c4 -6 -5 -10 -19 -10 -14 0 -26 5 -26 10 0 6 9 10 19 10 11 0 23
-4 26 -10z m769 -26 c24 -9 21 -54 -3 -54 -11 0 -23 5 -26 10 -4 6 -67 11
-148 12 l-142 2 137 3 c105 3 139 7 148 18 14 17 13 17 34 9z m209 -19 c7 -16
-8 -29 -23 -20 -15 9 -12 35 4 35 8 0 16 -7 19 -15z m-1560 -1 c9 -9 -4 -34
-18 -34 -14 0 -27 25 -18 34 4 3 12 6 18 6 6 0 14 -3 18 -6z m397 -3 c0 -6 -4
-12 -8 -15 -5 -3 -9 1 -9 9 0 8 4 15 9 15 4 0 8 -4 8 -9z m-202 -24 c2 -12 -3
-17 -17 -17 -12 0 -21 6 -21 13 0 31 32 34 38 4z m-1222 -17 c6 -6 110 -11
249 -13 l240 -2 -242 -3 c-148 -1 -244 -6 -248 -12 -3 -5 -17 -10 -31 -10 -17
0 -24 6 -24 18 0 10 3 22 7 25 10 10 38 8 49 -3z m2145 -137 c13 -16 12 -17
-3 -4 -17 13 -22 21 -14 21 2 0 10 -8 17 -17z m268 -21 c10 -20 -2 -42 -23
-42 -6 0 -4 5 4 10 13 9 13 10 0 11 -8 1 -19 1 -24 0 -5 -1 -3 6 5 15 9 12 9
15 2 10 -7 -4 -13 -2 -13 3 0 18 39 12 49 -7z m-213 -34 l29 -33 -32 29 c-31
28 -38 36 -30 36 2 0 16 -15 33 -32z m-2239 -13 c0 -8 -9 -22 -19 -32 -16 -14
-18 -14 -18 0 0 25 11 47 24 47 7 0 13 -7 13 -15z m1383 5 c0 -5 -5 -10 -11
-10 -5 0 -7 5 -4 10 3 6 8 10 11 10 2 0 4 -4 4 -10z m1051 -43 c-10 -9 -11 -8
-5 6 3 10 9 15 12 12 3 -3 0 -11 -7 -18z m-106 -37 c10 -11 16 -20 13 -20 -3
0 -13 9 -23 20 -10 11 -16 20 -13 20 3 0 13 -9 23 -20z"/>
<path d="M1282 2395 c4 -4 3 -16 -3 -26 -7 -15 -6 -17 6 -13 18 7 20 30 3 40
-7 4 -10 4 -6 -1z"/>
<path d="M1280 2330 c0 -13 11 -13 30 0 12 8 11 10 -7 10 -13 0 -23 -4 -23
-10z"/>
<path d="M1513 1813 c9 -2 23 -2 30 0 6 3 -1 5 -18 5 -16 0 -22 -2 -12 -5z"/>
<path d="M1459 2022 c-31 -26 -20 -46 35 -67 55 -21 76 -15 76 23 0 56 -64 81
-111 44z"/>
<path d="M1284 2015 c-46 -19 -83 -85 -65 -114 14 -22 77 0 129 45 33 28 40
39 32 49 -20 25 -64 34 -96 20z"/>
<path d="M828 1267 c-3 -19 -2 -25 4 -19 6 6 8 18 6 28 -3 14 -5 12 -10 -9z"/>
<path d="M1281 1536 c12 -10 59 -15 59 -6 0 5 -14 10 -32 10 -17 0 -29 -2 -27
-4z"/>
<path d="M438 728 c6 -8 9 -18 5 -21 -3 -4 1 -7 11 -7 24 0 16 34 -9 39 -16 3
-17 1 -7 -11z"/>
<path d="M445 670 c3 -5 10 -10 16 -10 5 0 9 5 9 10 0 6 -7 10 -16 10 -8 0
-12 -4 -9 -10z"/>
<path d="M560 659 c0 -5 5 -7 10 -4 6 3 10 8 10 11 0 2 -4 4 -10 4 -5 0 -10
-5 -10 -11z"/>
<path d="M2066 775 c-3 -9 -6 -22 -5 -28 0 -7 5 -1 10 12 5 13 8 26 5 28 -2 2
-6 -3 -10 -12z"/>
<path d="M2088 743 c7 -3 16 -2 19 1 4 3 -2 6 -13 5 -11 0 -14 -3 -6 -6z"/>
<path d="M2096 718 c3 -5 10 -6 15 -3 13 9 11 12 -6 12 -8 0 -12 -4 -9 -9z"/>
<path d="M2090 681 c0 -10 26 -9 36 2 4 4 -2 7 -14 7 -12 0 -22 -4 -22 -9z"/>
</g>
</svg>
